<svg xmlns="http://www.w3.org/2000/svg" width="20" height="20" viewBox="0 0 172 172">
<g fill="none" stroke-width="none" stroke-linecap="none" stroke-miterlimit="10" font-family="none" font-weight="none" font-size="none" text-anchor="none" style="mix-blend-mode:normal">
    <path d="M0 172V0h172v172z"/><path d="M107.5 121.833l7.733 14.649c.466.889 1.526 1.283 2.515 1.283.036 0 .065 0 .1-.007 5.634-.18 30.351-4.372 39.41-20.368.272-.466.409-.996.409-1.548 0-30.845-13.123-66.521-19.86-72.756-6.47-5.232-14.44-8.93-20.582-11.266a7.17 7.17 0 00-6.622.795 7.154 7.154 0 00-3.103 5.899A4.484 4.484 0 01103.014 43H68.979a4.48 4.48 0 01-4.479-4.48 7.177 7.177 0 00-3.103-5.905 7.148 7.148 0 00-6.622-.788c-6.164 2.358-14.176 6.092-20.74 11.395-6.58 6.099-19.702 41.782-19.702 72.627 0 .545.136 1.075.409 1.548 9.066 16.003 33.783 20.189 39.41 20.368.035.007.064.007.1.007.996 0 2.05-.401 2.515-1.283l7.733-14.656z" fill="#5865f2" opacity=".3"/>
    <path d="M107.5 121.833l7.733 14.649c.466.889 1.526 1.283 2.515 1.283.036 0 .065 0 .1-.007 5.634-.18 30.351-4.372 39.41-20.368.272-.466.409-.996.409-1.548 0-30.845-13.123-66.521-19.86-72.756-6.47-5.232-14.44-8.93-20.582-11.266a7.17 7.17 0 00-6.622.795 7.154 7.154 0 00-3.103 5.899A4.484 4.484 0 01103.014 43H68.979a4.48 4.48 0 01-4.479-4.48 7.177 7.177 0 00-3.103-5.905 7.148 7.148 0 00-6.622-.788c-6.164 2.358-14.176 6.092-20.74 11.395-6.58 6.099-19.702 41.782-19.702 72.627 0 .545.136 1.075.409 1.548 9.066 16.003 33.783 20.189 39.41 20.368.035.007.064.007.1.007.996 0 2.05-.401 2.515-1.283l7.733-14.656" stroke="#5865f2" stroke-width="14.333" stroke-linecap="butt"/>
    <path d="M64.787 100.247c-5.942 0-10.75-6.4-10.75-14.304 0-7.905 4.809-14.305 10.75-14.305 5.962-.788 10.62 6.4 10.75 14.305 0 7.904-4.81 14.304-10.75 14.304z" fill="#5865f2"/>
    <ellipse cx="14.996" cy="12.012" transform="scale(7.16667)" rx="1.5" ry="2" fill="#5865f2"/>
    <path d="M50.167 114.667c26.896 9.56 43.415 9.553 71.666 0" stroke="#5865f2" stroke-width="14.333" stroke-linecap="round"/>
</g>
</svg>