<svg xmlns="http://www.w3.org/2000/svg" width="20" height="20" viewBox="0 0 172 172">
<g fill="none" stroke-miterlimit="10" font-family="none" font-weight="none" font-size="none" text-anchor="none" style="mix-blend-mode:normal">
    <path d="M0 172V0h172v172z"/>
    <g fill="#3498db">
        <path d="M57.333 129h-25.8C25.8 129 21.5 124.7 21.5 118.967v-2.15l19.35-87.434v-.716c1.433-4.3 5.017-7.167 10.033-7.167h43c15.05 0 30.1 8.6 31.534 27.95 0 2.15-.717 3.583-2.15 5.017-1.434 2.15-2.867 2.866-5.017 2.866H78.117L64.5 123.267c-.717 3.583-3.583 5.733-7.167 5.733zM36.55 114.667H51.6L64.5 51.6v-.717c1.433-4.3 5.017-7.166 10.033-7.166h33.684c-4.3-7.167-12.9-7.167-15.05-7.167H53.75z"/><path d="M80.267 150.5h-23.65c-5.734 0-10.034-4.3-10.034-10.033v-2.15L57.333 86c0-.717 0-1.433.717-1.433 1.433-3.584 5.017-5.734 9.317-5.734h13.616c22.934 0 27.95-11.466 29.384-20.066.716-1.434 0-4.3 0-6.45v-1.434c0-2.15.716-3.583 2.15-5.016C113.95 43.717 116.1 43 117.533 43c10.034 0 20.067 4.3 25.8 12.183 4.3 5.017 8.6 14.334 5.734 28.667-4.3 20.067-18.634 30.817-43 30.817H96.033l-6.45 27.95c0 .716 0 .716-.716 1.433-1.434 3.583-5.017 6.45-8.6 7.167.716-.717 0-.717 0-.717zm-18.634-14.333h15.05l6.45-27.234c.717-3.583 4.3-8.6 10.034-8.6h13.616c17.2 0 25.8-5.733 28.667-19.35 1.433-6.45.717-12.183-2.867-16.483-2.15-2.867-5.016-4.3-7.166-5.733 0 .716 0 2.15-.717 2.866-2.867 14.334-12.9 31.534-43.717 31.534H70.95zM97.467 111.8z"/><path d="M71.667 53.033c0-1.433 1.433-2.866 2.866-2.866h43c-.716-15.05-12.9-21.5-24.366-21.5h-43c-1.434 0-2.15.716-2.867 2.15L28.667 118.25v.717c0 1.433 1.433 2.866 2.866 2.866h25.8z" opacity=".3"/><path d="M117.533 50.167c0 2.866.717 6.45 0 10.033C113.233 79.55 98.9 86 80.983 86H67.367c-1.434 0-2.15.717-2.867 1.433l-10.75 51.6v.717c0 1.433 1.433 2.867 2.867 2.867h23.65c1.433 0 2.866-1.434 2.866-2.867l7.167-30.1s.717-2.867 2.867-2.867h13.616c17.917 0 31.534-5.733 35.834-25.083 4.3-20.783-11.467-31.533-25.084-31.533z" opacity=".3"/>
    </g>
</g>
</svg>