<svg xmlns="http://www.w3.org/2000/svg" width="20" height="20" viewBox="0 0 172 172">
<g fill="none" stroke-miterlimit="10" font-family="none" font-weight="none" font-size="none" text-anchor="none" style="mix-blend-mode:normal">
    <path d="M0 172V0h172v172z"/>
    <g fill="#9e6847">
        <path d="M161.25 121.117c-3.583 5.016-9.317 7.883-15.767 7.883h-2.15c0 11.467-10.033 21.5-21.5 21.5-3.583 0-7.883-1.433-10.75-2.867-7.166 2.15-15.05 2.867-25.083 2.867-10.033 0-17.917-.717-25.083-2.867-2.867 1.434-6.45 2.867-10.75 2.867-12.184 0-21.5-10.033-21.5-21.5h-1.434c-6.45 0-12.183-2.867-15.766-7.883-2.867-4.3-4.3-9.317-3.584-14.334.717-5.016 3.584-10.033 7.884-12.9l36.55-27.233c-1.434-3.583-2.15-6.45-2.15-9.317V55.9c-8.6-2.867-14.334-10.75-14.334-20.067 0-12.183 9.317-21.5 21.5-21.5 7.167 0 13.617 3.584 17.2 9.317C78.117 22.217 81.7 21.5 86 21.5c4.3 0 7.883.717 11.467 2.15 3.583-5.733 10.033-9.317 17.2-9.317 11.466 0 21.5 9.317 21.5 21.5 0 9.317-6.45 17.2-14.334 20.067v1.433c0 2.867-.716 5.734-.716 7.884l36.55 27.95c4.3 2.866 7.166 7.883 7.883 12.9 0 5.733-1.433 10.75-4.3 15.05z" opacity=".3"/>
        <path d="M114.667 57.333V43c4.3 0 7.166-2.867 7.166-7.167s-2.866-7.166-7.166-7.166c-4.3 0-7.167 2.866-7.167 7.166H93.167c0-12.183 9.316-21.5 21.5-21.5 12.183 0 21.5 9.317 21.5 21.5 0 12.184-9.317 21.5-21.5 21.5zm-57.334 0c-12.183 0-21.5-9.316-21.5-21.5 0-12.183 9.317-21.5 21.5-21.5 12.184 0 21.5 9.317 21.5 21.5H64.5c0-4.3-2.867-7.166-7.167-7.166s-7.166 2.866-7.166 7.166c0 4.3 2.866 7.167 7.166 7.167zM50.167 150.5c-12.184 0-21.5-9.317-21.5-21.5s9.316-21.5 21.5-21.5c12.183 0 21.5 9.317 21.5 21.5s-9.317 21.5-21.5 21.5zm0-28.667c-4.3 0-7.167 2.867-7.167 7.167s2.867 7.167 7.167 7.167 7.166-2.867 7.166-7.167-2.866-7.167-7.166-7.167z"/>
        <path d="M86 150.5c-12.183 0-22.217-1.433-30.1-5.017l5.017-13.616c6.45 2.15 14.333 3.583 25.083 3.583 10.75 0 18.633-1.433 25.083-3.583l5.017 13.616c-7.883 3.584-17.2 5.017-30.1 5.017z"/>
        <path d="M121.833 150.5c-12.183 0-21.5-9.317-21.5-21.5s9.317-21.5 21.5-21.5c12.184 0 21.5 9.317 21.5 21.5s-9.316 21.5-21.5 21.5zm0-28.667c-4.3 0-7.166 2.867-7.166 7.167s2.866 7.167 7.166 7.167c4.3 0 7.167-2.867 7.167-7.167s-2.867-7.167-7.167-7.167zm-86 7.167h-8.6c-6.45 0-12.183-2.867-15.766-7.883-2.867-4.3-4.3-9.317-3.584-15.05.717-5.017 3.584-10.034 7.884-12.9l45.15-34.4 8.6 11.466-45.15 34.4c-2.15.717-2.867 2.15-2.867 3.584 0 1.433 0 2.866.717 4.3 1.433 1.433 2.866 2.15 5.016 2.15h8.6z"/>
        <path d="M144.767 129h-8.6v-14.333h8.6c1.433 0 3.583-.717 4.3-2.15.716-1.434 1.433-2.867.716-4.3 0-1.434-.716-2.867-2.15-3.584l-45.15-34.4 8.6-11.466 45.15 34.4c4.3 2.866 7.167 7.883 7.884 12.9.716 5.016-.717 10.75-3.584 15.05-3.583 5.016-9.316 7.883-15.766 7.883z"/>
        <path d="M86 93.167c-20.067 0-35.833-15.767-35.833-35.834C50.167 37.267 65.933 21.5 86 21.5s35.833 15.767 35.833 35.833c0 20.067-15.766 35.834-35.833 35.834zm0-57.334c-12.183 0-21.5 9.317-21.5 21.5 0 12.184 9.317 21.5 21.5 21.5s21.5-9.316 21.5-21.5c0-12.183-9.317-21.5-21.5-21.5z"/>
        <path d="M86 57.333a7.167 7.167 0 100 14.334 7.167 7.167 0 000-14.334z"/>
    </g>
</g>
</svg>
